<?xml version="1.0" standalone="no"?>
<!DOCTYPE svg PUBLIC "-//W3C//DTD SVG 20010904//EN"
 "http://www.w3.org/TR/2001/REC-SVG-20010904/DTD/svg10.dtd">
<svg version="1.0" xmlns="http://www.w3.org/2000/svg"
 width="363.000000pt" height="89.000000pt" viewBox="0 0 363.000000 89.000000"
 preserveAspectRatio="xMidYMid meet">

<g transform="translate(0.000000,89.000000) scale(0.100000,-0.100000)"
fill="#000000" stroke="none">
<path d="M1287 883 c-4 -3 -7 -82 -7 -173 0 -137 3 -170 15 -180 13 -11 15 9
15 174 0 170 -4 199 -23 179z"/>
<path d="M1911 876 c-10 -12 -10 -23 0 -53 8 -26 10 -74 6 -159 -5 -98 -4
-124 8 -134 10 -8 19 -9 34 0 25 13 26 23 6 53 -12 18 -12 38 -3 123 12 109 3
177 -23 182 -9 2 -21 -4 -28 -12z"/>
<path d="M906 859 c-26 -20 -26 -22 -10 -40 9 -11 12 -19 6 -19 -6 0 -14 5
-17 10 -11 18 -23 10 -38 -27 -11 -28 -12 -40 -3 -45 24 -16 42 -7 55 27 7 19
25 42 42 52 20 12 29 24 27 38 -4 28 -29 30 -62 4z m51 -5 c5 -16 -38 -37 -50
-25 -8 8 -5 15 9 26 20 15 36 15 41 -1z m-73 -88 c-3 -14 -12 -26 -20 -26 -17
0 -18 24 -3 52 15 27 32 9 23 -26z"/>
<path d="M1453 855 c-43 -18 -61 -52 -37 -69 15 -12 16 -22 5 -126 -10 -98
-10 -115 3 -128 13 -13 18 -13 40 2 25 16 25 18 10 41 -13 20 -15 40 -10 103
12 133 11 132 62 132 36 0 46 -5 61 -26 15 -24 15 -29 2 -53 -12 -21 -23 -27
-57 -29 -38 -3 -43 -6 -40 -25 7 -48 103 -24 133 33 17 34 20 83 5 111 -25 45
-113 62 -177 34z"/>
<path d="M1048 775 c-16 -13 -28 -27 -28 -31 0 -4 -16 -24 -35 -45 -68 -76
-33 -81 53 -8 66 56 78 74 61 95 -15 18 -19 18 -51 -11z m-30 -82 c-21 -20
-40 -34 -43 -31 -9 9 45 68 63 68 12 0 6 -11 -20 -37z"/>
<path d="M2292 763 c-11 -10 -28 -30 -37 -45 -17 -27 -17 -28 3 -28 18 0 19
-5 15 -64 -5 -55 -3 -66 16 -85 26 -26 52 -27 81 -3 27 22 19 42 -15 42 -32 0
-48 31 -39 75 6 32 9 35 39 35 26 0 35 5 40 21 8 24 -8 39 -35 32 -11 -3 -19
2 -23 16 -6 26 -18 26 -45 4z"/>
<path d="M2452 747 c-34 -35 -41 -57 -18 -57 11 0 13 -14 9 -64 -5 -56 -3 -66
17 -86 16 -16 28 -20 48 -15 55 13 68 55 17 55 -31 0 -46 28 -38 73 5 33 9 36
42 39 29 2 37 8 39 26 3 22 -4 26 -39 23 -9 -1 -19 7 -22 19 -7 28 -18 25 -55
-13z"/>
<path d="M1715 730 c-44 -18 -85 -83 -85 -136 0 -14 12 -36 26 -51 20 -20 31
-24 57 -19 17 3 41 16 53 27 22 21 22 21 28 1 12 -35 58 -38 70 -5 4 10 -2 21
-14 30 -14 10 -20 25 -20 54 0 21 5 39 10 39 14 0 13 43 -2 58 -14 14 -92 15
-123 2z m68 -78 c0 -18 -9 -42 -19 -53 -23 -25 -70 -25 -84 0 -14 27 -13 35
11 65 17 22 28 27 58 24 34 -3 36 -5 34 -36z"/>
<path d="M2076 719 c-47 -37 -69 -104 -50 -154 10 -26 62 -48 99 -41 36 7 89
51 80 66 -3 5 -20 3 -40 -7 -40 -19 -88 -9 -93 18 -2 13 6 16 43 15 39 -1 51
3 71 27 13 15 24 36 24 46 0 49 -85 68 -134 30z m74 -34 c18 -21 0 -38 -40
-38 -42 0 -49 11 -21 34 28 23 44 24 61 4z"/>
<path d="M2628 721 c-21 -17 -24 -26 -22 -83 1 -34 2 -69 3 -75 1 -7 15 -20
33 -29 61 -32 139 15 154 92 7 40 -10 90 -37 104 -31 17 -104 12 -131 -9z
m113 -41 c24 -13 26 -72 3 -90 -23 -20 -75 -16 -91 6 -14 20 -10 58 9 81 13
16 52 17 79 3z"/>
<path d="M830 701 c0 -11 4 -31 9 -45 8 -18 15 -23 31 -19 17 5 21 12 18 42
-3 31 -7 36 -30 39 -22 3 -28 -1 -28 -17z m48 -24 c2 -18 -1 -27 -11 -27 -15
0 -30 37 -21 52 10 17 29 2 32 -25z"/>
<path d="M1125 634 c-16 -25 -16 -27 3 -47 l21 -20 20 34 c24 39 23 53 -6 57
-13 2 -26 -7 -38 -24z m49 7 c3 -5 -3 -20 -13 -32 -18 -22 -20 -22 -26 -6 -11
27 25 62 39 38z"/>
<path d="M874 626 c-18 -14 -18 -15 10 -45 35 -37 37 -37 54 -10 12 18 11 24
-9 45 -26 28 -29 29 -55 10z m44 -18 c16 -16 15 -38 -1 -38 -18 0 -49 34 -40
43 10 11 28 8 41 -5z"/>
<path d="M1063 588 c-32 -15 -32 -58 0 -58 12 0 32 7 45 15 18 14 20 19 9 35
-13 22 -22 23 -54 8z m47 -18 c0 -10 -32 -30 -49 -30 -15 0 -14 27 2 33 21 9
47 7 47 -3z"/>
<path d="M949 568 c-14 -25 -4 -35 44 -43 38 -7 39 -7 35 21 -2 23 -9 30 -36
35 -26 5 -35 3 -43 -13z m66 -8 c11 -17 -3 -28 -30 -22 -32 6 -33 32 -1 32 14
0 28 -4 31 -10z"/>
<path d="M656 303 c-13 -45 -17 -111 -8 -117 15 -9 18 1 26 72 4 38 3 62 -3
62 -5 0 -12 -8 -15 -17z"/>
<path d="M1014 306 c-10 -27 -10 -111 1 -111 6 0 9 3 7 8 -1 4 3 28 8 54 7 31
7 50 1 56 -7 7 -12 5 -17 -7z"/>
<path d="M1075 309 c-10 -26 -10 -114 0 -114 6 0 9 3 7 8 -1 4 3 28 9 53 9 33
9 48 1 56 -8 8 -13 7 -17 -3z"/>
<path d="M1137 314 c-8 -8 1 -24 14 -24 5 0 9 7 9 15 0 15 -12 20 -23 9z"/>
<path d="M1641 294 c-25 -32 -27 -76 -5 -98 21 -22 37 -20 60 6 15 18 16 20 2
9 -10 -7 -25 -11 -33 -7 -23 8 -17 90 7 94 9 2 18 -4 20 -12 2 -11 7 -13 17
-7 21 13 5 41 -23 41 -15 0 -33 -11 -45 -26z"/>
<path d="M1864 306 c-10 -27 -10 -111 1 -111 6 0 9 3 7 8 -1 4 3 28 8 54 7 31
7 50 1 56 -7 7 -12 5 -17 -7z"/>
<path d="M2190 302 c0 -11 -11 -39 -24 -63 -23 -40 -25 -59 -7 -59 5 0 11 9
14 20 6 23 47 28 47 6 0 -15 24 -28 34 -19 3 4 2 11 -3 17 -6 6 -11 34 -13 61
-3 43 -6 50 -25 53 -17 3 -23 -2 -23 -16z m30 -49 c0 -16 -6 -23 -19 -23 -17
0 -18 3 -8 35 11 38 27 30 27 -12z"/>
<path d="M2500 305 c0 -9 5 -15 11 -13 6 2 11 8 11 13 0 5 -5 11 -11 13 -6 2
-11 -4 -11 -13z"/>
<path d="M836 279 c-14 -71 0 -117 27 -90 8 8 8 11 -1 11 -19 0 -14 48 6 59
11 7 13 10 3 11 -8 0 -11 7 -8 20 3 12 0 20 -8 20 -7 0 -15 -14 -19 -31z"/>
<path d="M1525 273 c-4 -21 -9 -45 -11 -54 -6 -23 23 -46 38 -31 9 9 9 12 0
12 -7 0 -12 13 -12 30 0 17 3 30 8 30 4 0 7 11 7 25 0 39 -23 29 -30 -12z"/>
<path d="M2655 300 c-3 -5 -8 -31 -11 -59 -6 -53 4 -69 33 -52 10 6 12 11 6
11 -14 0 -18 60 -4 60 4 0 6 11 3 25 -4 26 -16 32 -27 15z"/>
<path d="M2955 293 c-13 -32 -16 -101 -6 -108 6 -3 19 -1 28 4 10 6 12 11 6
11 -14 0 -18 60 -4 60 4 0 6 11 3 25 -5 29 -17 32 -27 8z"/>
<path d="M718 273 c-8 -16 -3 -78 7 -83 13 -7 19 70 7 82 -5 5 -12 6 -14 1z"/>
<path d="M764 264 c-10 -9 -13 -12 -5 -8 11 5 13 0 9 -25 -3 -19 1 -36 9 -42
7 -6 13 -10 14 -8 6 45 6 90 0 94 -5 2 -17 -3 -27 -11z"/>
<path d="M909 259 c-35 -35 -7 -92 37 -75 18 8 18 9 -3 17 -15 5 -23 17 -23
33 0 29 17 43 33 26 9 -9 7 -15 -7 -26 -17 -12 -17 -14 -3 -14 23 0 40 33 25
48 -17 17 -35 15 -59 -9z"/>
<path d="M1128 273 c-7 -18 -2 -83 6 -83 9 0 13 13 19 64 2 19 -18 34 -25 19z"/>
<path d="M1195 264 c-20 -20 -19 -63 0 -71 23 -8 28 2 14 25 -10 16 -10 23 0
36 19 23 31 10 29 -32 -1 -39 -14 -65 -29 -56 -5 3 -9 1 -9 -4 0 -6 7 -12 15
-16 21 -8 44 31 47 83 3 41 1 44 -24 46 -16 2 -35 -3 -43 -11z"/>
<path d="M1313 265 c-25 -17 -30 -54 -11 -73 16 -16 30 -15 53 2 18 13 18 14
-8 9 -27 -5 -28 -4 -25 27 3 37 28 55 28 21 0 -12 -5 -21 -12 -21 -6 0 -9 -2
-6 -5 12 -13 39 9 36 29 -4 26 -27 31 -55 11z"/>
<path d="M1399 275 c-9 -9 6 -90 16 -88 13 4 13 85 -1 90 -5 2 -13 1 -15 -2z"/>
<path d="M1459 278 c0 -1 -1 -23 -2 -48 -2 -33 2 -45 12 -45 18 0 21 87 3 93
-6 2 -12 2 -13 0z"/>
<path d="M1750 260 c-26 -26 -26 -56 0 -70 28 -15 59 -3 71 27 12 31 12 29 -7
47 -21 21 -40 20 -64 -4z m45 -10 c8 -26 -3 -62 -18 -57 -7 2 -13 14 -15 26
-7 45 20 71 33 31z"/>
<path d="M1934 272 c-18 -12 -34 -50 -28 -66 15 -40 79 -25 90 21 10 37 -31
66 -62 45z m32 -17 c8 -19 -3 -65 -16 -65 -13 0 -22 37 -15 60 8 24 23 26 31
5z"/>
<path d="M2029 278 c-9 -65 -2 -117 14 -91 12 19 11 86 0 90 -7 3 -13 3 -14 1z"/>
<path d="M2075 270 c-4 -6 -3 -16 3 -22 6 -6 12 -6 17 2 4 6 3 16 -3 22 -6 6
-12 6 -17 -2z"/>
<path d="M2303 273 c-20 -7 -15 -37 7 -51 11 -7 20 -17 20 -22 0 -14 -28 -12
-33 3 -2 6 -8 9 -12 5 -11 -10 4 -28 24 -28 9 0 26 7 37 15 18 14 18 15 -11
39 -16 13 -27 28 -23 32 4 4 14 1 22 -5 8 -7 17 -8 20 -3 10 16 -25 26 -51 15z"/>
<path d="M2394 265 c-19 -15 -18 -16 9 -36 15 -11 27 -25 27 -30 0 -16 -29
-10 -39 9 -10 16 -10 16 -11 0 0 -22 16 -31 44 -24 35 9 41 34 11 48 -14 6
-25 17 -25 25 0 15 16 17 25 3 4 -6 11 -7 17 -4 6 4 5 10 -3 15 -20 12 -33 11
-55 -6z"/>
<path d="M2489 278 c0 -1 -1 -21 -2 -43 -2 -43 15 -61 20 -23 8 52 7 61 -4 65
-7 3 -13 3 -14 1z"/>
<path d="M2563 273 c-20 -7 -15 -37 7 -51 11 -7 20 -17 20 -22 0 -14 -28 -12
-33 3 -2 6 -8 9 -12 5 -11 -10 4 -28 24 -28 9 0 26 7 37 15 19 15 18 16 -8 36
-31 23 -36 39 -13 39 8 0 15 -5 15 -11 0 -5 5 -7 10 -4 26 16 -15 32 -47 18z"/>
<path d="M2726 264 c-18 -17 -21 -69 -6 -79 6 -4 17 -2 25 5 9 8 15 8 20 0 14
-22 27 -3 30 43 2 33 -1 47 -9 44 -6 -2 -13 -14 -14 -28 -5 -29 -21 -51 -33
-43 -15 9 -10 42 7 52 10 6 13 12 6 16 -6 3 -18 -1 -26 -10z"/>
<path d="M2829 278 c-6 -32 -1 -92 9 -96 7 -2 13 8 14 27 1 17 2 39 2 48 1 13
-22 33 -25 21z"/>
<path d="M2887 273 c-9 -19 -1 -88 11 -88 6 0 12 3 12 8 0 4 0 25 0 47 0 36
-12 53 -23 33z"/>
</g>
</svg>
