<svg width="20" height="21" viewBox="0 0 20 21" fill="none" xmlns="http://www.w3.org/2000/svg">
<path d="M7.40039 17.9525H15.6254C16.1779 17.9525 16.7078 17.733 17.0985 17.3423C17.4892 16.9516 17.7087 16.4217 17.7087 15.8692V12.8442C17.7043 12.2945 17.4829 11.7689 17.0927 11.3818C16.7024 10.9947 16.175 10.7775 15.6254 10.7775H14.5671M9.48372 15.8525L14.5671 10.7608L16.1254 9.2025C16.3191 9.00968 16.4729 8.78049 16.5778 8.52808C16.6827 8.27566 16.7367 8.00501 16.7367 7.73166C16.7367 7.45831 16.6827 7.18766 16.5778 6.93525C16.4729 6.68284 16.3191 6.45364 16.1254 6.26083L13.9837 4.11916C13.7909 3.9254 13.5617 3.77165 13.3093 3.66674C13.0569 3.56182 12.7862 3.50781 12.5129 3.50781C12.2395 3.50781 11.9689 3.56182 11.7165 3.66674C11.4641 3.77165 11.2349 3.9254 11.0421 4.11916L9.48372 5.67749" stroke="#6D2EDC" stroke-width="1.5" stroke-linecap="round" stroke-linejoin="round"/>
<path d="M7.40033 2.53906H4.37533C3.82279 2.53906 3.29289 2.75856 2.90219 3.14926C2.51149 3.53996 2.29199 4.06986 2.29199 4.6224V15.8724C2.29199 16.4249 2.51149 16.9548 2.90219 17.3455C3.29289 17.7362 3.82279 17.9557 4.37533 17.9557H7.40033C7.95286 17.9557 8.48276 17.7362 8.87346 17.3455C9.26417 16.9548 9.48366 16.4249 9.48366 15.8724V4.6224C9.48366 4.06986 9.26417 3.53996 8.87346 3.14926C8.48276 2.75856 7.95286 2.53906 7.40033 2.53906Z" stroke="#6D2EDC" stroke-width="1.5" stroke-linecap="round" stroke-linejoin="round"/>
<path d="M5.8879 15.7426C6.06234 15.7426 6.23507 15.7082 6.39623 15.6415C6.5574 15.5747 6.70383 15.4769 6.82718 15.3535C6.95052 15.2302 7.04837 15.0838 7.11512 14.9226C7.18188 14.7614 7.21624 14.5887 7.21624 14.4143C7.21624 14.2398 7.18188 14.0671 7.11512 13.9059C7.04837 13.7448 6.95052 13.5983 6.82718 13.475C6.70383 13.3516 6.5574 13.2538 6.39623 13.1871C6.23507 13.1203 6.06234 13.0859 5.8879 13.0859C5.53561 13.0859 5.19774 13.2259 4.94863 13.475C4.69952 13.7241 4.55957 14.062 4.55957 14.4143C4.55957 14.7666 4.69952 15.1044 4.94863 15.3535C5.19774 15.6027 5.53561 15.7426 5.8879 15.7426Z" stroke="#6D2EDC" stroke-width="1.5" stroke-linecap="round" stroke-linejoin="round"/>
</svg>
