<svg width="21" height="21" viewBox="0 0 21 21" fill="none" xmlns="http://www.w3.org/2000/svg">
<path d="M10.5003 18.5807C9.36144 18.5807 8.28505 18.3618 7.27116 17.9241C6.25727 17.4863 5.37199 16.8891 4.61533 16.1324C3.85866 15.3757 3.26144 14.4905 2.82366 13.4766C2.38588 12.4627 2.16699 11.3863 2.16699 10.2474C2.16699 9.09462 2.39283 8.01128 2.84449 6.9974C3.29616 5.98351 3.90727 5.10156 4.67783 4.35156C5.44838 3.60156 6.34755 3.00795 7.37533 2.57073C8.4031 2.13351 9.50033 1.91462 10.667 1.91406C11.7781 1.91406 12.8267 2.10517 13.8128 2.4874C14.7989 2.86962 15.6637 3.3974 16.407 4.07073C17.1503 4.74406 17.7406 5.54267 18.1778 6.46656C18.615 7.39045 18.8337 8.38684 18.8337 9.45573C18.8337 11.053 18.3475 12.2788 17.3753 13.1332C16.4031 13.9877 15.2225 14.4146 13.8337 14.4141H12.292C12.167 14.4141 12.0803 14.4488 12.032 14.5182C11.9837 14.5877 11.9592 14.6641 11.9587 14.7474C11.9587 14.9141 12.0628 15.1538 12.2712 15.4666C12.4795 15.7793 12.5837 16.1368 12.5837 16.5391C12.5837 17.2335 12.3928 17.7474 12.0112 18.0807C11.6295 18.4141 11.1259 18.5807 10.5003 18.5807ZM5.91699 11.0807C6.2781 11.0807 6.57671 10.9627 6.81283 10.7266C7.04894 10.4905 7.16699 10.1918 7.16699 9.83073C7.16699 9.46962 7.04894 9.17101 6.81283 8.9349C6.57671 8.69878 6.2781 8.58073 5.91699 8.58073C5.55588 8.58073 5.25727 8.69878 5.02116 8.9349C4.78505 9.17101 4.66699 9.46962 4.66699 9.83073C4.66699 10.1918 4.78505 10.4905 5.02116 10.7266C5.25727 10.9627 5.55588 11.0807 5.91699 11.0807ZM8.41699 7.7474C8.7781 7.7474 9.07671 7.62934 9.31283 7.39323C9.54894 7.15712 9.66699 6.85851 9.66699 6.4974C9.66699 6.13628 9.54894 5.83767 9.31283 5.60156C9.07671 5.36545 8.7781 5.2474 8.41699 5.2474C8.05588 5.2474 7.75727 5.36545 7.52116 5.60156C7.28505 5.83767 7.16699 6.13628 7.16699 6.4974C7.16699 6.85851 7.28505 7.15712 7.52116 7.39323C7.75727 7.62934 8.05588 7.7474 8.41699 7.7474ZM12.5837 7.7474C12.9448 7.7474 13.2434 7.62934 13.4795 7.39323C13.7156 7.15712 13.8337 6.85851 13.8337 6.4974C13.8337 6.13628 13.7156 5.83767 13.4795 5.60156C13.2434 5.36545 12.9448 5.2474 12.5837 5.2474C12.2225 5.2474 11.9239 5.36545 11.6878 5.60156C11.4517 5.83767 11.3337 6.13628 11.3337 6.4974C11.3337 6.85851 11.4517 7.15712 11.6878 7.39323C11.9239 7.62934 12.2225 7.7474 12.5837 7.7474ZM15.0837 11.0807C15.4448 11.0807 15.7434 10.9627 15.9795 10.7266C16.2156 10.4905 16.3337 10.1918 16.3337 9.83073C16.3337 9.46962 16.2156 9.17101 15.9795 8.9349C15.7434 8.69878 15.4448 8.58073 15.0837 8.58073C14.7225 8.58073 14.4239 8.69878 14.1878 8.9349C13.9517 9.17101 13.8337 9.46962 13.8337 9.83073C13.8337 10.1918 13.9517 10.4905 14.1878 10.7266C14.4239 10.9627 14.7225 11.0807 15.0837 11.0807ZM10.5003 16.9141C10.6253 16.9141 10.7262 16.8793 10.8028 16.8099C10.8795 16.7405 10.9175 16.6502 10.917 16.5391C10.917 16.3446 10.8128 16.1155 10.6045 15.8516C10.3962 15.5877 10.292 15.1918 10.292 14.6641C10.292 14.0807 10.4934 13.6155 10.8962 13.2682C11.2989 12.921 11.792 12.7474 12.3753 12.7474H13.8337C14.7503 12.7474 15.535 12.4802 16.1878 11.9457C16.8406 11.4113 17.167 10.5813 17.167 9.45573C17.167 7.77517 16.5248 6.37573 15.2403 5.2574C13.9559 4.13906 12.4314 3.58017 10.667 3.58073C8.7781 3.58073 7.16699 4.22656 5.83366 5.51823C4.50033 6.8099 3.83366 8.38628 3.83366 10.2474C3.83366 12.0946 4.4831 13.6677 5.78199 14.9666C7.08088 16.2655 8.65366 16.9146 10.5003 16.9141Z" fill="white"/>
</svg>
