<svg width="20" height="21" viewBox="0 0 20 21" fill="none" xmlns="http://www.w3.org/2000/svg">
<path d="M7.91667 7.7526H7.925M12.0833 7.7526H12.0917M15 3.58594C15.663 3.58594 16.2989 3.84933 16.7678 4.31817C17.2366 4.78701 17.5 5.4229 17.5 6.08594V12.7526C17.5 13.4156 17.2366 14.0515 16.7678 14.5204C16.2989 14.9892 15.663 15.2526 15 15.2526H10.8333L6.66667 17.7526V15.2526H5C4.33696 15.2526 3.70107 14.9892 3.23223 14.5204C2.76339 14.0515 2.5 13.4156 2.5 12.7526V6.08594C2.5 5.4229 2.76339 4.78701 3.23223 4.31817C3.70107 3.84933 4.33696 3.58594 5 3.58594H15Z" stroke="#868686" stroke-width="1.2" stroke-linecap="round" stroke-linejoin="round"/>
<path d="M7.91699 11.0859C8.18856 11.3631 8.5127 11.5833 8.87043 11.7336C9.22816 11.8839 9.61229 11.9614 10.0003 11.9614C10.3884 11.9614 10.7725 11.8839 11.1302 11.7336C11.488 11.5833 11.8121 11.3631 12.0837 11.0859" stroke="#868686" stroke-width="1.2" stroke-linecap="round" stroke-linejoin="round"/>
</svg>
